<svg aria-hidden="true" style="position: absolute; width: 0; height: 0; overflow: hidden;" version="1.1" xmlns="http://www.w3.org/2000/svg" xmlns:xlink="http://www.w3.org/1999/xlink">
    <defs>
        <symbol id="icon-logo" viewBox="0 0 185 32">
            <path d="M3.821 29.357c-2.095-0.286-3.369-1.393-3.821-3.322l0.036-0.393c0.095-0.286 0.202-0.607 0.321-0.964 0.119-0.405 0.25-0.798 0.393-1.179 0.143-0.405 0.381-0.762 0.714-1.071 0.071-0.214 0.202-0.536 0.393-0.964 0.214-0.452 0.56-1.119 1.036-2 0.381-0.69 0.679-1.238 0.893-1.643 0.238-0.405 0.429-0.714 0.571-0.929-0.238-0.429-0.571-0.845-1-1.25-0.381-0.714-0.714-1.393-1-2.036-0.262-0.667-0.464-1.262-0.607-1.786-0.024-0.572-0.119-1.155-0.286-1.75-0.071-0.31-0.143-0.619-0.214-0.929s-0.107-0.631-0.107-0.964c-0.095-0.167-0.179-0.381-0.25-0.643l0.071-0.429c0.119-0.19 0.143-0.44 0.071-0.75-0.048-0.333-0.119-0.667-0.214-1-0.071-0.31-0.143-0.631-0.214-0.964-0.048-0.357-0.060-0.702-0.036-1.036s0.107-0.655 0.25-0.964c0.167-0.31 0.44-0.571 0.821-0.786l0.357-0.25 0.357 0.214c0.262 0.167 0.512 0.31 0.75 0.429s0.476 0.238 0.714 0.357c0.286 0.143 0.571 0.298 0.857 0.464 0.286 0.143 0.595 0.31 0.929 0.5l0.357 0.25-0.036 0.393c0 0.048 0.012 0.107 0.036 0.179s0.060 0.131 0.107 0.179l0.393 0.107 0.036 0.5v0.429c0 0.214 0.012 0.369 0.036 0.464 0.024 0.071 0.071 0.155 0.143 0.25l0.179 0.464c0 0.429 0.036 0.81 0.107 1.143s0.155 0.667 0.25 1c0.119 0.333 0.214 0.679 0.286 1.036 0.071 0.333 0.083 0.702 0.036 1.107 0.143-0.071 0.286-0.179 0.429-0.321 0.048-0.048 0.095-0.095 0.143-0.143 0.071-0.048 0.143-0.095 0.214-0.143l2.5-3.393-0.071-0.429 0.893-0.857c0.238-0.19 0.464-0.381 0.678-0.571 0.214-0.214 0.393-0.452 0.536-0.714l0.214-0.321c1.071-1.429 2.452-2.31 4.143-2.643l0.607-0.143 0.178 0.571c0.119 0.333 0.345 0.631 0.679 0.893 0.357 0.238 0.738 0.476 1.143 0.714l0.393 0.25c0.143 0.286 0.214 0.5 0.214 0.643s-0.012 0.262-0.036 0.357l0.178 0.464c-0.262 0.69-0.548 1.19-0.857 1.5-0.309 0.286-0.631 0.56-0.964 0.821-0.262 0.214-0.5 0.429-0.714 0.643s-0.381 0.452-0.5 0.714l-0.286 0.357c-0.595 0.31-0.976 0.762-1.143 1.357l-0.143 0.5h-0.536c-0.024 0-0.083 0.060-0.178 0.179-0.095 0.095-0.238 0.345-0.429 0.75-0.214 0.286-0.369 0.476-0.464 0.571-0.071 0.071-0.131 0.131-0.179 0.178-0.048 0.119-0.095 0.226-0.143 0.322-0.024 0.095-0.059 0.214-0.107 0.357l-0.214 0.286c-0.214 0.191-0.369 0.381-0.464 0.571-0.095 0.167-0.202 0.369-0.322 0.607-0.095 0.214-0.202 0.441-0.322 0.679-0.119 0.214-0.286 0.429-0.5 0.643l0.071 0.393-0.286 0.25c-0.19 0.167-0.357 0.381-0.5 0.643-0.143 0.238-0.286 0.488-0.429 0.75-0.143 0.286-0.298 0.571-0.464 0.857s-0.381 0.548-0.643 0.786c-0.167 0.429-0.321 0.762-0.464 1-0.119 0.238-0.333 0.524-0.643 0.857-0.286 1.143-0.964 2.369-2.036 3.679-0.024 0.262-0.107 0.524-0.25 0.786-0.119 0.238-0.25 0.464-0.393 0.678-0.048 0.095-0.107 0.202-0.179 0.322-0.048 0.095-0.083 0.167-0.107 0.214l-0.107 0.393c-0.143 0.262-0.298 0.476-0.464 0.643-0.143 0.167-0.286 0.322-0.429 0.464-0.071 0.048-0.143 0.107-0.214 0.179-0.048 0.071-0.095 0.131-0.143 0.178l-0.607 0.214z"></path>
            <path d="M76.066 7.857c0.048 0.524 0.131 0.976 0.25 1.357s0.25 0.75 0.393 1.107c0.119 0.333 0.226 0.667 0.321 1 0.119 0.31 0.202 0.69 0.25 1.143-0.191 0.619-0.333 1.191-0.429 1.714-0.071 0.524-0.155 1.072-0.25 1.643-0.381 0.833-0.75 1.571-1.107 2.214s-0.643 1.202-0.857 1.679c-0.119 0.119-0.226 0.262-0.322 0.429-0.071 0.143-0.155 0.298-0.25 0.464-0.048 0.072-0.107 0.179-0.179 0.322s-0.131 0.238-0.178 0.286l-0.714-0.25-0.143 0.893-0.5 0.143-0.357 0.429c-0.452 0.786-0.929 1.452-1.429 2-0.5 0.524-1.071 1-1.714 1.429-0.619 0.405-1.333 0.786-2.143 1.143-0.786 0.357-1.679 0.75-2.679 1.178-0.405-0.048-0.762-0.071-1.071-0.071-0.286-0.024-0.559-0.048-0.821-0.072-0.452 0-1.012-0.036-1.679-0.107-0.071-0.191-0.178-0.322-0.321-0.393s-0.274-0.107-0.393-0.107c-0.405-0.191-0.714-0.464-0.929-0.822-0.19-0.381-0.381-0.786-0.571-1.214-0.119-0.262-0.238-0.5-0.357-0.714-0.119-0.238-0.25-0.476-0.393-0.714l0.607-0.179-0.786-0.857c-0.048-0.071-0.107-0.131-0.178-0.179-0.071-0.071-0.131-0.143-0.179-0.214l-0.036-0.571c-0.071-1.643-0.107-3.143-0.107-4.5 0.024-1.381 0.214-2.607 0.571-3.678v-0.393c0.071-0.524 0.143-0.952 0.214-1.286 0.071-0.357 0.131-0.691 0.179-1 0.071-0.524 0.178-1.012 0.321-1.464 0.333-0.071 0.583-0.202 0.75-0.393 0.167-0.214 0.309-0.405 0.429-0.571 0.333-0.024 0.56 0.024 0.678 0.143s0.238 0.31 0.357 0.571c0.119 0.214 0.262 0.452 0.429 0.714 0.191 0.262 0.464 0.464 0.822 0.607 0.048 0.19 0.107 0.393 0.178 0.607 0.095 0.19 0.191 0.405 0.286 0.643 0.191 0.405 0.357 0.833 0.5 1.286 0.167 0.429 0.262 0.845 0.286 1.25-0.238 0.452-0.429 0.976-0.571 1.571-0.119 0.595-0.202 1.202-0.25 1.821-0.024 0.595-0.012 1.179 0.036 1.75 0.071 0.548 0.179 1.012 0.322 1.393l0.214 0.464 0.607-0.071c0.714-0.191 1.357-0.393 1.929-0.607 0.595-0.238 1.143-0.512 1.643-0.822s0.976-0.667 1.429-1.071c0.452-0.429 0.929-0.917 1.429-1.464s0.929-1.167 1.286-1.857c0.381-0.714 0.691-1.452 0.929-2.214 0.262-0.762 0.452-1.512 0.571-2.25 0.143-0.762 0.238-1.476 0.286-2.143 0.405-0.143 0.607-0.429 0.607-0.857l-0.071-0.393c-0.095-0.143-0.095-0.31 0-0.5 0.143-0.452 0.476-0.798 1-1.036 0.381 0.238 0.714 0.5 1 0.786 0.309 0.286 0.595 0.571 0.857 0.857z"></path>
            <path d="M83.6 24.464c-0.262 0.952-0.5 1.679-0.714 2.179-0.191 0.476-0.488 0.976-0.893 1.5-0.31-0.048-0.524-0.012-0.643 0.107s-0.25 0.226-0.393 0.321c-0.214 0.048-0.369 0.048-0.464 0s-0.179-0.107-0.25-0.178c-0.071-0.048-0.167-0.107-0.286-0.179-0.095-0.048-0.25-0.071-0.464-0.071-0.048-0.191-0.107-0.369-0.179-0.536-0.048-0.167-0.202-0.226-0.464-0.178 0.048-0.191 0.059-0.345 0.036-0.464-0.024-0.143-0.060-0.262-0.107-0.357-0.024-0.119-0.048-0.226-0.071-0.321-0.024-0.119-0.012-0.262 0.036-0.429-0.119 0-0.214-0.083-0.286-0.25s-0.155-0.333-0.25-0.5c0.071-0.429 0.143-0.833 0.214-1.214s0.155-0.738 0.25-1.071c0.119-0.333 0.214-0.667 0.286-1s0.036-0.679-0.107-1.036c0.095 0.071 0.167 0.060 0.214-0.036 0.048-0.119 0.083-0.262 0.107-0.429 0.024-0.19 0.036-0.369 0.036-0.536 0-0.191-0.012-0.345-0.036-0.464 0.238-0.619 0.429-1.25 0.571-1.893 0.167-0.667 0.309-1.321 0.429-1.964 0.143-0.643 0.286-1.274 0.429-1.893s0.333-1.191 0.571-1.714c0.262-0.048 0.548-0.012 0.857 0.107 0.333 0.095 0.536 0.226 0.607 0.393 0.619-0.476 1.167-1.048 1.643-1.714 0.476-0.69 0.964-1.357 1.464-2s1.048-1.214 1.643-1.714c0.619-0.5 1.393-0.798 2.322-0.893 0.476 0.357 1 0.726 1.571 1.107 0.595 0.357 1.083 0.833 1.464 1.429 0.191 0.095 0.345 0.202 0.464 0.321 0.143 0.095 0.309 0.202 0.5 0.321v0.429c0.286 0.262 0.512 0.571 0.678 0.929 0.191 0.333 0.357 0.702 0.5 1.107 0.143 0.381 0.286 0.774 0.429 1.178 0.143 0.381 0.309 0.75 0.5 1.107-0.048 0.119-0.071 0.226-0.071 0.321 0 0.071 0.012 0.155 0.036 0.25 0.048 0.095 0.083 0.19 0.107 0.286s0.024 0.226 0 0.393c-0.071 1.048-0.417 1.893-1.036 2.536-0.595 0.643-1.322 1.179-2.179 1.607-0.857 0.405-1.774 0.75-2.75 1.036s-1.857 0.595-2.643 0.928c0 0.095 0.036 0.143 0.107 0.143 0.095 0 0.131 0.060 0.107 0.179 0.571 0.357 1.024 0.643 1.357 0.857s0.643 0.393 0.929 0.536c0.309 0.143 0.631 0.274 0.964 0.393 0.357 0.095 0.845 0.214 1.464 0.357s1.095 0.262 1.429 0.357c0.357 0.071 0.678 0.143 0.964 0.214 0.286 0.048 0.571 0.095 0.857 0.143 0.309 0.024 0.738 0.060 1.286 0.107 0.214 0.214 0.393 0.476 0.536 0.786 0.167 0.286 0.274 0.583 0.321 0.893 0.048 0.286 0.060 0.571 0.036 0.857-0.024 0.262-0.107 0.476-0.25 0.643 0.024 0.071 0.071 0.107 0.143 0.107 0.095-0.024 0.191-0.024 0.286 0-0.143 0.095-0.262 0.214-0.357 0.357s-0.191 0.286-0.286 0.429c-0.095 0.143-0.202 0.262-0.321 0.357-0.119 0.119-0.286 0.191-0.5 0.214-0.738 0.286-1.667 0.298-2.786 0.036-1.119-0.238-2.536-0.691-4.25-1.357-0.857-0.333-1.56-0.619-2.107-0.857-0.524-0.262-0.988-0.512-1.393-0.75-0.381-0.262-0.738-0.536-1.071-0.821-0.309-0.286-0.691-0.631-1.143-1.036zM88.707 12.214c-0.262 0.381-0.56 0.726-0.893 1.036-0.309 0.309-0.619 0.631-0.929 0.964-0.286 0.309-0.548 0.667-0.786 1.071-0.238 0.381-0.405 0.833-0.5 1.357 0.833-0.095 1.702-0.322 2.607-0.678 0.905-0.381 1.762-0.738 2.571-1.072-0.095-0.738-0.357-1.333-0.786-1.786-0.405-0.452-0.833-0.75-1.286-0.893z"></path>
            <path d="M114.875 18.856c0.026-0.103 0.077-0.141 0.154-0.116 0.103 0 0.192-0.013 0.27-0.038-0.206-0.205-0.334-0.475-0.385-0.809-0.051-0.359-0.179-0.654-0.385-0.886 0.051-0.128 0.090-0.257 0.115-0.385 0.051-0.128 0.167-0.18 0.346-0.154-0.077-0.565-0.064-1.091 0.039-1.579s0.256-0.95 0.462-1.386c0.231-0.436 0.488-0.86 0.77-1.271 0.309-0.436 0.603-0.873 0.886-1.309 0.231-0.051 0.373-0.026 0.424 0.077 0.050 0.077 0.141 0.051 0.269-0.077 0.411-0.282 0.694-0.59 0.848-0.924 0.153-0.359 0.231-0.744 0.231-1.155 0.231-0.667 0.487-1.322 0.77-1.964 0.307-0.667 0.654-1.284 1.039-1.848s0.795-1.052 1.232-1.463c0.437-0.436 0.912-0.77 1.425-1.001 0.359-0.308 0.808-0.59 1.347-0.847 0.565-0.257 1.155-0.449 1.771-0.578 0.641-0.154 1.296-0.231 1.963-0.231 0.667-0.026 1.283 0.038 1.848 0.193 0.129 0.051 0.206 0.026 0.232-0.077 0.025-0.128 0.089-0.193 0.192-0.193 1.283 0.154 2.426 0.411 3.427 0.77 1.026 0.359 1.899 0.86 2.618 1.502 0.487 0.77 0.95 1.604 1.385 2.503 0.437 0.873 0.77 1.797 1.001 2.772 0.257 0.95 0.373 1.938 0.347 2.965-0.026 1.027-0.245 2.054-0.655 3.080-0.898 1.13-1.99 2.041-3.273 2.734-1.283 0.667-2.67 1.232-4.159 1.694-1.463 0.436-2.99 0.796-4.582 1.078-1.566 0.282-3.093 0.59-4.582 0.924 0.025 0.693 0.025 1.438 0 2.233-0.026 0.77-0.115 1.553-0.27 2.349-0.128 0.77-0.334 1.527-0.616 2.272-0.257 0.744-0.616 1.438-1.078 2.079-0.514-0.026-1.053 0.026-1.617 0.154-0.539 0.128-1.027 0.257-1.464 0.385-0.205-0.128-0.41-0.257-0.616-0.385-0.179-0.103-0.41-0.167-0.693-0.192 0.077-0.308 0-0.629-0.231-0.963-0.206-0.334-0.424-0.654-0.655-0.963-0.206-0.334-0.346-0.654-0.424-0.963-0.051-0.334 0.103-0.629 0.463-0.886-0.206-0.18-0.309-0.462-0.309-0.847 0.103 0.103 0.231 0.154 0.385 0.154-0.051-0.462 0-1.014 0.154-1.656 0.179-0.642 0.32-1.271 0.423-1.887 0.129-0.642 0.154-1.219 0.078-1.733-0.078-0.539-0.385-0.924-0.925-1.155zM124.887 9.846c-0.103 0.282-0.193 0.539-0.27 0.77-0.051 0.205-0.115 0.398-0.192 0.578-0.078 0.18-0.167 0.359-0.27 0.539-0.078 0.18-0.167 0.385-0.27 0.616 0.051 0.154 0.154 0.27 0.307 0.347 0.154 0.077 0.257 0.193 0.309 0.347 0.359-0.18 0.719-0.308 1.078-0.385 0.36-0.103 0.719-0.18 1.079-0.231 0.359-0.051 0.719-0.116 1.078-0.193s0.731-0.205 1.117-0.385c0.385-0.18 0.783-0.321 1.194-0.424 0.435-0.128 0.859-0.257 1.27-0.385 0.411-0.128 0.809-0.27 1.194-0.424 0.385-0.18 0.719-0.411 1.001-0.693-0.36-0.334-0.898-0.629-1.617-0.886s-1.502-0.411-2.349-0.462c-0.822-0.077-1.656-0.026-2.503 0.154-0.822 0.18-1.541 0.552-2.157 1.117z"></path>
            <path d="M159.849 8.036c0.025 0.18 0.025 0.321 0 0.424 0 0.077-0.014 0.154-0.039 0.231 0 0.077 0 0.167 0 0.27 0 0.077 0.025 0.205 0.077 0.385-0.538 0.873-1.168 1.476-1.887 1.81-0.693 0.308-1.45 0.539-2.271 0.693-0.822 0.128-1.669 0.27-2.542 0.424-0.847 0.154-1.694 0.488-2.542 1.001-0.334-0.128-0.641-0.128-0.923 0-0.257 0.128-0.642 0.167-1.155 0.115-0.154 0.154-0.346 0.27-0.577 0.347-0.231 0.051-0.463 0.115-0.694 0.192 0.103 0.231 0.142 0.475 0.115 0.732 0 0.231 0.039 0.424 0.115 0.578 0.899 0.077 1.887 0.064 2.966-0.039 1.103-0.103 2.182-0.167 3.234-0.192 0.025 0.128 0.013 0.218-0.039 0.27-0.051 0.026-0.064 0.090-0.039 0.193 0.181 0.128 0.36 0.295 0.539 0.501 0.179 0.18 0.359 0.359 0.539 0.539 0.179 0.18 0.359 0.334 0.538 0.462 0.206 0.103 0.437 0.141 0.694 0.116 0.103 0.205 0.167 0.436 0.192 0.693 0.051 0.231 0.026 0.475-0.077 0.732-0.41 0.282-0.822 0.578-1.232 0.886-0.411 0.282-0.847 0.539-1.31 0.77-0.437 0.231-0.911 0.424-1.424 0.578-0.488 0.128-1.040 0.18-1.656 0.154-0.128 0-0.231 0-0.309 0-0.050 0-0.128-0.038-0.231-0.116-0.205 0.128-0.501 0.167-0.886 0.116-0.359-0.051-0.641-0.013-0.847 0.115-0.282-0.128-0.629-0.18-1.039-0.154-0.385 0-0.733-0.051-1.040-0.154-0.411 0.539-0.783 1.117-1.117 1.733s-0.63 1.271-0.886 1.964c0.873 0.128 1.591 0.18 2.157 0.154 0.59-0.026 1.142-0.064 1.655-0.116 0.514-0.077 1.040-0.141 1.579-0.193 0.538-0.077 1.219-0.103 2.040-0.077 0.514-0.282 1.117-0.462 1.81-0.539 0.719-0.103 1.373-0.257 1.963-0.462 0.206 0.077 0.385 0.218 0.539 0.424 0.154 0.18 0.295 0.359 0.423 0.539 0.154 0.154 0.309 0.295 0.463 0.424 0.153 0.128 0.346 0.18 0.577 0.154 0.103 0.103 0.167 0.231 0.192 0.385 0.051 0.128 0.090 0.257 0.117 0.385 0.025 0.128 0.064 0.244 0.115 0.347 0.077 0.077 0.192 0.103 0.346 0.077-0.385 0.847-0.834 1.502-1.347 1.964-0.488 0.436-1.053 0.77-1.695 1.001-0.641 0.231-1.36 0.411-2.155 0.539-0.77 0.128-1.631 0.282-2.581 0.462-0.231 0.051-0.423 0.038-0.577-0.038-0.154-0.051-0.334-0.077-0.539-0.077-0.59 0.128-1.296 0.244-2.118 0.346s-1.656 0.141-2.503 0.116c-0.847-0.026-1.656-0.141-2.425-0.346-0.77-0.18-1.399-0.514-1.887-1.001-0.206-0.18-0.346-0.385-0.424-0.616-0.051-0.257-0.218-0.449-0.501-0.578-0.025-0.334-0.077-0.706-0.154-1.117-0.077-0.411-0.153-0.834-0.231-1.271-0.077-0.462-0.141-0.911-0.192-1.348-0.026-0.436 0-0.834 0.077-1.194 0.078-0.385 0.231-0.732 0.462-1.040 0.257-0.308 0.347-0.642 0.27-1.001 0.129-0.026 0.206-0.090 0.231-0.192 0.026-0.128 0.129-0.18 0.309-0.154 0.154-0.462 0.321-0.898 0.501-1.309s0.359-0.809 0.539-1.194c0.205-0.385 0.398-0.77 0.577-1.155 0.206-0.411 0.398-0.86 0.577-1.348-0.359-0.334-0.629-0.693-0.808-1.078-0.154-0.411-0.27-0.809-0.346-1.194-0.078-0.411-0.142-0.821-0.193-1.232-0.051-0.436-0.141-0.873-0.27-1.309 0.257-0.385 0.565-0.693 0.925-0.924 0.385-0.257 0.795-0.462 1.232-0.616s0.911-0.282 1.425-0.385c0.513-0.103 1.053-0.218 1.617-0.347 1.026-0.334 1.937-0.59 2.734-0.77 0.822-0.18 1.617-0.321 2.387-0.424 0.795-0.128 1.617-0.244 2.464-0.347s1.809-0.257 2.888-0.462c0.231 0.231 0.449 0.347 0.655 0.347 0.102-0.231 0.217-0.295 0.346-0.193 0.153 0.077 0.218 0 0.192-0.231 0.257 0.436 0.578 0.809 0.962 1.117 0.411 0.282 0.861 0.526 1.349 0.732z"></path>
            <path d="M180.833 11.194c-0.641 0-1.334 0.051-2.079 0.154-0.744 0.077-1.475 0.167-2.194 0.27-0.513 0.077-1.014 0.141-1.502 0.193-0.463 0.051-0.886 0.090-1.271 0.116-0.179 0.565-0.359 1.065-0.539 1.502-0.179 0.436-0.371 0.86-0.577 1.271-0.206 0.436-0.398 0.886-0.577 1.348-0.154 0.436-0.309 0.911-0.463 1.425-0.256 0.411-0.474 0.796-0.655 1.155-0.153 0.334-0.282 0.719-0.384 1.155-0.309 0.385-0.539 0.796-0.694 1.232-0.154 0.411-0.27 0.77-0.346 1.078l-0.154 0.462c-0.154 0.154-0.243 0.282-0.27 0.385-0.025 0.077-0.089 0.154-0.192 0.231-0.026 0.282-0.115 0.565-0.27 0.847-0.051 0.128-0.090 0.257-0.115 0.385-0.026 0.103-0.039 0.18-0.039 0.231 0 0.257-0.064 0.424-0.192 0.501 0.025 0.128 0.025 0.27 0 0.424-0.026 0.128-0.051 0.257-0.078 0.385-0.077 0.308-0.102 0.552-0.077 0.732 0.077 0.103 0.142 0.192 0.192 0.27 0.078 0.077 0.129 0.18 0.154 0.308 0.154 0.103 0.27 0.167 0.346 0.192 0.103 0.077 0.257 0.167 0.463 0.27l0.346 0.385c0.128 0.744 0.013 1.335-0.346 1.771-0.385 0.488-1.040 0.732-1.963 0.732h-0.463c-0.128-0.128-0.205-0.231-0.231-0.308-0.206-0.077-0.373-0.141-0.501-0.193s-0.243-0.154-0.346-0.308c-0.334-0.154-0.603-0.282-0.809-0.385l-0.346-0.193c0-0.282 0-0.436 0-0.462-0.179-0.231-0.321-0.488-0.424-0.77-0.077-0.282-0.141-0.565-0.192-0.847-0.051-0.231-0.115-0.449-0.192-0.655-0.051-0.205-0.129-0.385-0.232-0.539-0.050-1.489 0.090-2.747 0.424-3.773s0.68-2.015 1.040-2.965c0.205-0.513 0.41-1.027 0.616-1.54 0.205-0.539 0.385-1.091 0.538-1.656l0.347-0.385c0.179-0.411 0.32-0.744 0.423-1.001 0.129-0.282 0.257-0.565 0.385-0.847 0.078-0.18 0.142-0.347 0.193-0.501 0.077-0.18 0.141-0.334 0.192-0.462-0.154 0-0.295 0.013-0.423 0.039-0.129 0-0.257 0.013-0.385 0.039-0.154 0.026-0.296 0.051-0.424 0.077-0.128 0-0.257 0-0.385 0-0.179 0-0.307-0.013-0.385-0.039-0.282 0.128-0.59 0.193-0.923 0.193h-0.385c-0.078 0-0.154 0-0.232 0-0.050-0.026-0.102-0.039-0.153-0.039-0.257 0-0.463 0.039-0.616 0.116-0.309 0-0.603 0-0.886 0h-0.385c-0.051 0-0.115 0.013-0.193 0.039-0.077 0-0.141 0-0.192 0-0.179 0-0.373-0.013-0.577-0.039-0.206-0.051-0.424-0.141-0.655-0.27-0.309-0.411-0.513-0.629-0.616-0.655l-0.346-0.462c-0.026-0.154-0.065-0.295-0.117-0.424-0.050-0.154-0.102-0.321-0.153-0.501-0.103-0.257-0.206-0.526-0.309-0.809-0.077-0.308-0.115-0.667-0.115-1.078 0.026-0.205 0.077-0.359 0.154-0.462 0.077-0.103 0.141-0.193 0.192-0.27l0.115-0.578 0.501 0.038h1.079c0.821 0 1.655-0.026 2.503-0.077 0.847-0.077 1.72-0.154 2.618-0.231 0.513-0.051 1.026-0.103 1.539-0.154 0.539-0.051 1.091-0.103 1.656-0.154 0.103-0.231 0.206-0.449 0.309-0.655l0.385-0.193c0.462-0.026 0.783 0.038 0.962 0.193 0.205 0.128 0.371 0.257 0.501 0.385 0.565-0.051 1.129-0.103 1.694-0.154 0.591-0.077 1.181-0.167 1.771-0.27 0.873-0.128 1.745-0.244 2.618-0.347 0.898-0.103 1.759-0.154 2.579-0.154 0.36 0 0.706 0.013 1.040 0.038s0.642 0.064 0.925 0.116l0.385 0.27c0.077 0.154 0.179 0.295 0.307 0.424 0.154 0.128 0.309 0.257 0.462 0.385 0.309 0.282 0.616 0.616 0.925 1.001 0.307 0.385 0.424 0.95 0.346 1.694-0.206 0.308-0.359 0.488-0.462 0.539l-0.346 0.462-0.385-0.039c-0.154 0-0.296 0.026-0.424 0.077-0.128 0.026-0.256 0.064-0.385 0.116-0.103 0.051-0.205 0.103-0.307 0.154-0.103 0.026-0.218 0.051-0.347 0.077-0.231 0-0.423 0-0.577 0-0.128-0.026-0.27-0.039-0.424-0.039z"></path>
            <path fill="#FFC107" d="M34.8 12.551c2.181 1.017 4.898-0.177 6.057-2.662l0.059-0.127c1.124-2.408 1.787-3.829-0.357-4.829-0.516-0.229-1.091-0.415-1.689-0.546l-0.026-0.026-0.057 0.008c-2.305-0.48-4.93-0.123-5.841 1.83-1.159 2.485-0.327 5.334 1.854 6.351zM34.329 7.441c0.674-0.295 1.608-0.461 2.8-0.222 1.026 0.205 1.86 0.188 2.503 0.072 0.046 0.597-0.066 1.244-0.354 1.862-0.753 1.614-2.432 2.431-3.743 1.82-1.175-0.548-1.661-2.061-1.206-3.532z"></path>
            <path fill="#FFC107" d="M29.353 11.661c-0.767 0.784-1.753 1.176-2.778 1.105-0.332-0.023-1.070-0.391-1.543-0.627-0.122-0.061-0.226-0.113-0.301-0.148-1.433-0.668-1.724-1.855-1.596-3.715 0.163-2.335 1.969-4.118 4.026-3.975 0.963 0.066 1.478 0.766 2.078 1.583l0.001 0.001c0.037 0.051 0.075 0.102 0.113 0.153 0.060 0.082 0.122 0.163 0.183 0.245 0.567 0.755 1.135 1.511 1.067 2.508-0.076 1.105-0.52 2.124-1.25 2.87zM27.041 6.039c-1.1-0.076-2.073 0.981-2.169 2.358-0.094 1.376 0.725 2.557 1.824 2.632 0.506 0.035 1.008-0.173 1.412-0.585 0.441-0.45 0.709-1.079 0.757-1.772s-0.133-1.352-0.507-1.859c-0.208-0.282-0.462-0.494-0.743-0.625-0.182-0.085-0.375-0.136-0.574-0.149z"></path>
            <path fill="#FFC107" d="M36.605 14.264c-2.245-1.047-4.836-0.881-6.929 0.445l-5.044 3.194c-0.837 0.53-1.468 1.299-1.824 2.223s-0.404 1.918-0.139 2.872c0.265 0.955 0.819 1.781 1.601 2.389s1.719 0.942 2.71 0.963l0.065 0.001c2.485 0.073 4.846 1.184 6.487 3.054 0.423 0.482 0.932 0.864 1.501 1.129 0.309 0.144 0.637 0.254 0.978 0.328 0.969 0.208 1.958 0.102 2.86-0.309s1.632-1.086 2.111-1.953c0.48-0.867 0.663-1.844 0.531-2.826l-0.796-5.917c-0.33-2.456-1.868-4.547-4.113-5.594zM39.668 25.121c-2.739-1.088-6.784-1.893-7.115 1.173-0.399-0.254-0.814-0.482-1.242-0.682-1.334-0.622-2.795-0.971-4.292-1.004l-0.043-0.001c-1.242-0.045-2.297-0.875-2.631-2.076-0.31-1.118 0.079-2.282 0.974-2.986 0.647-0.457 1.713-0.654 3.809 0.245 3.2 1.371 3.238-0.571 2.286-1.714 1.143 0 3.543-0.343 4-1.714 0.087-0.262 0.107-0.487 0.075-0.678 0.127 0.048 0.253 0.101 0.377 0.159 1.705 0.795 2.872 2.383 3.123 4.247l0.677 5.032z"></path>
            <path fill="#FFC107" d="M43.389 17.546c-0.341-0.159-0.659-0.372-0.942-0.64-1.606-1.518-1.509-4.239 0.217-6.065 0.818-0.866 1.882-1.409 2.997-1.53 0.768-0.083 0.94 0.196 1.196 0.611 0.132 0.215 0.287 0.468 0.56 0.725 0.229 0.216 0.532 0.428 0.846 0.648 0.781 0.545 1.631 1.139 1.588 1.975-0.058 1.12-0.541 2.213-1.359 3.079-1.421 1.504-3.511 1.938-5.102 1.197zM45.849 11.043c-0.704 0.077-1.385 0.43-1.919 0.995-1.066 1.128-1.31 3.297-0.402 4.156 0.909 0.859 2.363 0.556 3.429-0.571 0.534-0.565 1.117-1.735 1.154-2.442 0.034-0.654-0.179-1.233-0.599-1.631s-1.011-0.578-1.662-0.507z"></path>
            <path fill="#FFC107" d="M49.466 20.537c-1.229-1.889-3.423-1.862-5.479-0.746-2.055 1.117-2.662 2.878-1.678 4.69 0.359 0.661 0.915 1.157 1.578 1.466 1.154 0.538 2.63 0.509 3.938-0.2 2.055-1.117 2.624-3.397 1.641-5.209zM46.995 24.215c-1.214 0.658-2.628 0.404-3.154-0.566-0.385-0.71-0.188-1.611 0.421-2.301 1.232-0.21 2.791-0.402 3.808-0.335 0.063 0.077 0.12 0.161 0.168 0.251 0.525 0.969-0.033 2.293-1.243 2.951z"></path>
        </symbol>

        <symbol id="icon-paw_full" viewBox="0 0 32 32">
            <path d="M18.291 12.856c-1.916 0.261-3.546 1.464-4.36 3.217s-0.681 3.775 0.356 5.406l2.499 3.932c0.415 0.652 1.015 1.144 1.737 1.42s1.497 0.313 2.242 0.105c0.745-0.208 1.388-0.642 1.862-1.253s0.732-1.343 0.748-2.116l0.001-0.052c0.054-1.939 0.918-3.782 2.375-5.065 0.376-0.331 0.673-0.728 0.879-1.173 0.112-0.242 0.198-0.497 0.255-0.764 0.161-0.756 0.077-1.528-0.245-2.231s-0.849-1.272-1.527-1.645-1.44-0.515-2.206-0.411l-4.616 0.629z"></path>
            <path d="M13.509 23.143c0.054-0.799-0.253-1.569-0.866-2.166-0.583-0.569-1.379-0.914-2.241-0.972s-1.697 0.178-2.351 0.663c-0.687 0.51-1.095 1.231-1.148 2.029-0.109 1.606 1.285 3.013 3.107 3.137 1.451 0.097 2.742-0.649 3.262-1.769 0.133-0.286 0.215-0.596 0.237-0.922z"></path>
            <path d="M12.777 17.425c0.791-1.703-0.145-3.822-2.086-4.723s-4.164-0.248-4.955 1.455c-0.791 1.703 0.145 3.822 2.086 4.723s4.163 0.248 4.954-1.455z"></path>
            <path d="M16.119 12.49l0-0c0.209-0.222 0.374-0.47 0.498-0.736 0.577-1.242 0.235-2.873-0.941-3.98-0.676-0.637-1.53-1.013-2.404-1.056-0.915-0.046-1.742 0.272-2.329 0.895s-0.855 1.468-0.755 2.379c0.096 0.87 0.521 1.7 1.198 2.337 1.427 1.344 3.55 1.416 4.733 0.161z"></path>
            <path d="M18.728 5.794l-0.001 0c-1.413 0.772-1.853 2.703-0.979 4.306 0.874 1.602 2.735 2.279 4.148 1.509 0.516-0.281 0.902-0.716 1.142-1.233 0.419-0.902 0.394-2.053-0.161-3.073-0.874-1.602-2.735-2.279-4.149-1.509z"></path>
        </symbol>

        <symbol id="icon-paw_full_stright" viewBox="0 0 32 32">
            <path d="M16.804 10.548c-2.211 1.417-3.531 3.831-3.531 6.456s1.32 5.039 3.531 6.456l5.327 3.415c0.884 0.567 1.905 0.828 2.952 0.756s2.023-0.47 2.822-1.153c0.798-0.683 1.343-1.585 1.577-2.608s0.134-2.073-0.289-3.035l-0.029-0.064c-1.042-2.42-1.033-5.184 0.029-7.598 0.274-0.623 0.412-1.282 0.412-1.948 0-0.362-0.041-0.726-0.123-1.086-0.234-1.024-0.779-1.926-1.577-2.609s-1.774-1.081-2.822-1.153c-1.048-0.072-2.069 0.189-2.953 0.756l-5.327 3.415z"></path>
            <path d="M16.798 25.955c-0.39-1.016-1.209-1.788-2.305-2.173-1.043-0.367-2.221-0.337-3.317 0.085s-1.989 1.189-2.517 2.161c-0.555 1.021-0.645 2.142-0.254 3.156 0.784 2.040 3.306 2.977 5.622 2.087 1.843-0.711 3.007-2.368 3.007-4.044 0-0.428-0.076-0.857-0.236-1.272z"></path>
            <path d="M12.624 19.329c0-2.551-2.364-4.626-5.27-4.626s-5.272 2.075-5.272 4.626c0 2.55 2.365 4.626 5.272 4.626s5.27-2.075 5.27-4.626z"></path>
            <path d="M13.919 11.341v-0c0.13-0.392 0.192-0.793 0.192-1.191 0-1.86-1.354-3.673-3.435-4.365-1.198-0.398-2.464-0.372-3.566 0.074-1.153 0.467-1.99 1.331-2.357 2.435s-0.214 2.298 0.431 3.362c0.616 1.017 1.614 1.796 2.812 2.194 2.527 0.84 5.184-0.285 5.923-2.508z"></path>
            <path d="M13.304 1.599l-0.001 0.001c-1.299 1.759-0.736 4.39 1.256 5.865 1.993 1.474 4.673 1.243 5.974-0.513 0.474-0.641 0.701-1.397 0.701-2.172 0-1.35-0.689-2.755-1.956-3.694-1.993-1.473-4.673-1.243-5.974 0.513z"></path>
        </symbol>
        
        <symbol id="icon-search" viewBox="0 0 32 32">
            <path d="M25.96 27.374c0.391 0.391 1.024 0.391 1.414 0s0.391-1.024 0-1.414l-1.414 1.414zM23 14c0 4.971-4.029 9-9 9v2c6.075 0 11-4.925 11-11h-2zM14 23c-4.971 0-9-4.029-9-9h-2c0 6.075 4.925 11 11 11v-2zM5 14c0-4.971 4.029-9 9-9v-2c-6.075 0-11 4.925-11 11h2zM14 5c4.971 0 9 4.029 9 9h2c0-6.075-4.925-11-11-11v2zM27.374 25.96l-5.583-5.583-1.414 1.414 5.583 5.583 1.414-1.414z"></path>
        </symbol>

        <symbol id="icon-cross_big" viewBox="0 0 32 32">
            <path fill="inherit" stroke="inherit" stroke-linejoin="round" stroke-linecap="round" stroke-miterlimit="4" stroke-width="2" d="M25.333 6.667l-18.667 18.667M6.667 6.667l18.667 18.667"></path>
        </symbol>

        <symbol id="icon-arrow" viewBox="0 0 32 32">
            <path fill="none" stroke="#54adff" style="stroke: var(--color1, #54adff)" stroke-linejoin="round" stroke-linecap="round" stroke-miterlimit="4" stroke-width="2" d="M5.333 16h21.333M5.333 16l8-8M5.333 16l8 8"></path>
        </symbol>

        <symbol id="icon-wing_arrow" viewBox="0 0 32 32">
            <path fill="inherit" stroke="inherit" stroke-linejoin="round" stroke-linecap="round" stroke-miterlimit="4" stroke-width="2" d="M5.333 12l10.667 10.667 10.667-10.667"></path>
        </symbol>

        <symbol id="icon-filter" viewBox="0 0 32 32">
            <path stroke-linejoin="round" stroke-linecap="round" stroke-miterlimit="4" stroke-width="2" d="M5.333 5.333l6.667 10.667v8l8 4v-12l6.667-10.667h-21.333z"></path>
        </symbol>

        <symbol id="icon-heart" viewBox="0 0 32 32">
            <path fill="inherit" stroke="inherit" stroke-linejoin="round" stroke-linecap="round" stroke-miterlimit="4" stroke-width="2" d="M5.775 16.063l10.225 10.603 10.225-10.603c1.137-1.179 1.775-2.777 1.775-4.444 0-3.471-2.714-6.285-6.061-6.285-1.607 0-3.149 0.662-4.286 1.841l-1.653 1.715-1.653-1.715c-1.137-1.179-2.678-1.841-4.286-1.841-3.347 0-6.061 2.814-6.061 6.285 0 1.667 0.639 3.266 1.775 4.444z"></path>
        </symbol>

        <symbol id="icon-trash_bin" viewBox="0 0 32 32">
            <path fill="inherit" stroke="inherit" stroke-linejoin="round" stroke-linecap="round" stroke-miterlimit="4" stroke-width="2" d="M24 8v16c0 1.473-1.194 2.667-2.667 2.667h-10.667c-1.473 0-2.667-1.194-2.667-2.667v-16M20 8v-1.333c0-1.473-1.194-2.667-2.667-2.667h-2.667c-1.473 0-2.667 1.194-2.667 2.667v1.333M5.333 8h21.333M13.333 13.333v8M18.667 13.333v8"></path>
        </symbol>

        <symbol id="icon-location" viewBox="0 0 32 32">
            <path fill="inherit" stroke="inherit" stroke-linejoin="round" stroke-linecap="round" stroke-miterlimit="4" stroke-width="2" d="M26.667 14.667c0 5.891-4.776 10.667-10.667 13.333-5.891-2.667-10.667-7.442-10.667-13.333s4.776-10.667 10.667-10.667c5.891 0 10.667 4.776 10.667 10.667z"></path>
            <path fill="inherit" stroke="inherit" stroke-linejoin="round" stroke-linecap="round" stroke-miterlimit="4" stroke-width="2" d="M20 14.667c0 2.209-1.791 4-4 4s-4-1.791-4-4c0-2.209 1.791-4 4-4s4 1.791 4 4z"></path>
        </symbol>

        <symbol id="icon-clock" viewBox="0 0 33 32">
            <path fill="inherit" stroke="inherit" stroke-linejoin="round" stroke-linecap="round" stroke-miterlimit="4" stroke-width="2" d="M16.667 9.333v6.667l4 4M28.667 16c0 6.627-5.373 12-12 12s-12-5.373-12-12c0-6.627 5.373-12 12-12s12 5.373 12 12z"></path>
        </symbol>

        <symbol id="icon-female" viewBox="0 0 32 32">
            <path fill="inherit" stroke="inherit" stroke-linejoin="round" stroke-linecap="round" stroke-miterlimit="4" stroke-width="2" d="M16 17.333c3.682 0 6.667-2.985 6.667-6.667s-2.985-6.667-6.667-6.667c-3.682 0-6.667 2.985-6.667 6.667s2.985 6.667 6.667 6.667zM16 17.333v10.667M12 24h8"></path>
        </symbol>

        <symbol id="icon-male" viewBox="0 0 33 32">
            <path fill="inherit" stroke="inherit" stroke-linejoin="round" stroke-linecap="round" stroke-miterlimit="4" stroke-width="2" d="M17.010 14.667c-3.682 0-6.667 2.985-6.667 6.667s2.985 6.667 6.667 6.667c3.682 0 6.667-2.985 6.667-6.667s-2.985-6.667-6.667-6.667zM17.010 14.667v-10.667M17.010 4l5.333 5.333M17.010 4l-5.333 5.333"></path>
        </symbol>

        <symbol id="icon-plus" viewBox="0 0 32 32">
            <path fill="inherit" stroke="inherit" stroke-linejoin="miter" stroke-linecap="round" stroke-miterlimit="4" stroke-width="2.6667" d="M16 26.667v-10.667M16 16v-10.667M16 16h10.667M16 16h-10.667"></path>
        </symbol>

        <symbol id="icon-sun_fill" viewBox="0 0 20 20">
            <path d="M10 14c-2.209 0-4-1.791-4-4s1.791-4 4-4v0c2.209 0 4 1.791 4 4s-1.791 4-4 4v0zM9 1c0-0.552 0.448-1 1-1s1 0.448 1 1v0 2c0 0.552-0.448 1-1 1s-1-0.448-1-1v0-2zM15.65 2.94c0.184-0.215 0.456-0.35 0.76-0.35 0.552 0 1 0.448 1 1 0 0.303-0.135 0.575-0.348 0.758l-0.001 0.001-1.4 1.4c-0.184 0.215-0.456 0.35-0.76 0.35-0.552 0-1-0.448-1-1 0-0.303 0.135-0.575 0.348-0.758l0.001-0.001 1.4-1.4zM18.99 9c0.552 0 1 0.448 1 1s-0.448 1-1 1v0h-1.98c-0.552 0-1-0.448-1-1s0.448-1 1-1v0h1.98zM17.060 15.65c0.215 0.184 0.35 0.456 0.35 0.76 0 0.552-0.448 1-1 1-0.303 0-0.575-0.135-0.758-0.348l-0.001-0.001-1.4-1.4c-0.215-0.184-0.35-0.456-0.35-0.76 0-0.552 0.448-1 1-1 0.303 0 0.575 0.135 0.758 0.348l0.001 0.001 1.4 1.4zM11 18.99c0 0.552-0.448 1-1 1s-1-0.448-1-1v0-1.98c0-0.552 0.448-1 1-1s1 0.448 1 1v0 1.98zM4.35 17.060c-0.184 0.215-0.456 0.35-0.76 0.35-0.552 0-1-0.448-1-1 0-0.303 0.135-0.575 0.348-0.758l0.001-0.001 1.4-1.4c0.184-0.215 0.456-0.35 0.76-0.35 0.552 0 1 0.448 1 1 0 0.303-0.135 0.575-0.348 0.758l-0.001 0.001-1.4 1.4zM1.010 11c-0.552 0-1-0.448-1-1s0.448-1 1-1v0h1.98c0.552 0 1 0.448 1 1s-0.448 1-1 1v0h-1.98zM2.94 4.35c-0.215-0.184-0.35-0.456-0.35-0.76 0-0.552 0.448-1 1-1 0.303 0 0.575 0.135 0.758 0.348l0.001 0.001 1.4 1.4c0.215 0.184 0.35 0.456 0.35 0.76 0 0.552-0.448 1-1 1-0.303 0-0.575-0.135-0.758-0.348l-0.001-0.001-1.4-1.4z"></path>
        </symbol>

        <symbol id="icon-sun" viewBox="0 0 32 32">
            <path d="M16 26c1.105 0 2 0.895 2 2v2c0 1.105-0.895 2-2 2s-2-0.895-2-2v-2c0-1.105 0.895-2 2-2zM16 6c-1.105 0-2-0.895-2-2v-2c0-1.105 0.895-2 2-2s2 0.895 2 2v2c0 1.105-0.895 2-2 2zM30 14c1.105 0 2 0.895 2 2s-0.895 2-2 2h-2c-1.105 0-2-0.895-2-2s0.895-2 2-2h2zM6 16c0 1.105-0.895 2-2 2h-2c-1.105 0-2-0.895-2-2s0.895-2 2-2h2c1.105 0 2 0.895 2 2zM25.899 23.071l1.414 1.414c0.781 0.781 0.781 2.047 0 2.828s-2.047 0.781-2.828 0l-1.414-1.414c-0.781-0.781-0.781-2.047 0-2.828s2.047-0.781 2.828 0zM6.101 8.929l-1.414-1.414c-0.781-0.781-0.781-2.047 0-2.828s2.047-0.781 2.828 0l1.414 1.414c0.781 0.781 0.781 2.047 0 2.828s-2.047 0.781-2.828 0zM25.899 8.929c-0.781 0.781-2.047 0.781-2.828 0s-0.781-2.047 0-2.828l1.414-1.414c0.781-0.781 2.047-0.781 2.828 0s0.781 2.047 0 2.828l-1.414 1.414zM6.101 23.071c0.781-0.781 2.047-0.781 2.828 0s0.781 2.047 0 2.828l-1.414 1.414c-0.781 0.781-2.047 0.781-2.828 0s-0.781-2.047 0-2.828l1.414-1.414z"></path>
            <path d="M16 8c-4.418 0-8 3.582-8 8s3.582 8 8 8c4.418 0 8-3.582 8-8s-3.582-8-8-8zM16 21c-2.761 0-5-2.239-5-5s2.239-5 5-5 5 2.239 5 5-2.239 5-5 5z"></path>
        </symbol>

        <symbol id="icon-moon_fill" viewBox="0 0 33 35">
            <path d="M24.633 22.184c-8.188 0-14.82-6.637-14.82-14.82 0-2.695 0.773-5.188 2.031-7.363-6.824 1.968-11.844 8.187-11.844 15.644 0 9.031 7.32 16.355 16.352 16.355 7.457 0 13.68-5.023 15.648-11.844-2.18 1.254-4.672 2.028-7.367 2.028z"></path>
        </symbol>

        <symbol id="icon-moon" viewBox="0 0 33 35">
            <path d="M5.895 9.148c0.848 8.959 8 16.109 16.957 16.953-1.91 1.211-4.152 1.898-6.5 1.898-6.813 0.001-12.352-5.538-12.352-12.353 0-2.347 0.688-4.587 1.895-6.498M11.844 0c-6.824 1.969-11.844 8.189-11.844 15.646 0 9.034 7.32 16.354 16.352 16.354 7.457 0 13.68-5.023 15.648-11.844-2.18 1.258-4.672 2.031-7.367 2.031-8.188 0-14.82-6.639-14.82-14.822-0.001-2.695 0.773-5.187 2.031-7.365v0z"></path>
        </symbol>

        <symbol id="icon-eye_closed" viewBox="0 0 32 32">
            <path fill="inherit" stroke="inherit" stroke-linejoin="round" stroke-linecap="round" stroke-miterlimit="4" stroke-width="2" d="M13.019 7.060c0.936-0.251 1.931-0.394 2.981-0.394 8.485 0 13.333 9.333 13.333 9.333s-1.105 2.128-3.184 4.351M5.799 11.704c-2.045 2.203-3.132 4.296-3.132 4.296s4.848 9.333 13.333 9.333c1.069 0 2.081-0.148 3.033-0.407M15.333 19.945c-1.446-0.243-2.628-1.26-3.106-2.611M16.667 12.055c1.675 0.281 2.997 1.603 3.278 3.278M4 4l24 24"></path>
        </symbol>

        <symbol id="icon-eye_open" viewBox="0 0 32 32">
            <path fill="inherit" stroke="inherit" stroke-linejoin="round" stroke-linecap="round" stroke-miterlimit="4" stroke-width="2" d="M2.667 16c0 0 4.848-9.333 13.333-9.333s13.333 9.333 13.333 9.333-4.849 9.333-13.333 9.333c-8.485 0-13.333-9.333-13.333-9.333z"></path>
            <path fill="inherit" stroke="inherit" stroke-linejoin="round" stroke-linecap="round" stroke-miterlimit="4" stroke-width="2" d="M16 20c2.209 0 4-1.791 4-4s-1.791-4-4-4c-2.209 0-4 1.791-4 4s1.791 4 4 4z"></path>
        </symbol>

        <symbol id="icon-okey" viewBox="0 0 32 32">
            <path fill="inherit" stroke="inherit" stroke-linejoin="round" stroke-linecap="round" stroke-miterlimit="4" stroke-width="2" d="M26.667 9.333l-14.667 14.667-6.667-6.667"></path>
        </symbol>
    </defs>
</svg>
